<svg width="21" height="21" viewBox="0 0 21 21" fill="none" xmlns="http://www.w3.org/2000/svg">
<rect y="0.34314" width="20.3137" height="20.3137" rx="10.1569" fill="white"/>
<path fill-rule="evenodd" clip-rule="evenodd" d="M12.3527 3.98347C12.3622 3.96991 12.3809 3.96662 12.3945 3.97611L13.3217 4.62537C13.3353 4.63486 13.3386 4.65355 13.3291 4.66712L12.0385 6.5102C12.6659 6.71064 13.0934 6.92685 13.0934 6.92685C13.0934 6.92685 12.0486 8.72402 10.2765 8.72402C8.50437 8.72402 7.24514 7.04902 7.24514 7.04902C7.24514 7.04902 7.69164 6.76408 8.35351 6.51969L6.93795 4.83271C6.92731 4.82003 6.92897 4.80112 6.94165 4.79048L7.80876 4.06288C7.82146 4.05224 7.84036 4.05389 7.851 4.06658L9.64332 6.20258C9.79679 6.18522 9.95314 6.17552 10.1109 6.17552C10.3377 6.17552 10.5642 6.19276 10.7853 6.22202L12.3527 3.98347ZM12.7033 8.80913C13.1762 8.47139 13.8918 7.58987 13.8918 7.58987C13.8918 7.58987 15.7196 9.03833 15.7196 12.1096C15.7196 15.1808 12.5596 17.0293 12.5596 17.0293C12.5596 17.0293 11.0498 15.5046 10.6792 13.5717C10.3085 11.6389 11.2274 9.49271 11.2274 9.49271C11.2274 9.49271 12.2304 9.14688 12.7033 8.80913ZM7.6103 8.80913C7.1374 8.47139 6.42182 7.58987 6.42182 7.58987C6.42182 7.58987 4.59399 9.03833 4.59399 12.1096C4.59399 15.1808 7.75402 17.0293 7.75402 17.0293C7.75402 17.0293 9.26382 15.5046 9.63447 13.5717C10.0051 11.6389 9.0862 9.49271 9.0862 9.49271C9.0862 9.49271 8.08322 9.14688 7.6103 8.80913Z" fill="#91C12F"/>
</svg>
