<svg width="21" height="21" viewBox="0 0 21 21" fill="none" xmlns="http://www.w3.org/2000/svg">
<rect y="0.343139" width="20.3137" height="20.3137" rx="10.1569" fill="white"/>
<path fill-rule="evenodd" clip-rule="evenodd" d="M9.48664 15.5208C9.73473 15.5587 9.98882 15.5784 10.2475 15.5784C13.0022 15.5784 15.2353 13.3453 15.2353 10.5907C15.2353 7.83603 13.0022 5.60294 10.2475 5.60294C10.0627 5.60294 9.88024 5.61299 9.70065 5.63258C11.0671 6.66782 11.9706 8.46114 11.9706 10.5C11.9706 12.6435 10.972 14.5156 9.48664 15.5208ZM10.1568 17.0294C13.7629 17.0294 16.6863 14.1061 16.6863 10.5C16.6863 6.8939 13.7629 3.97059 10.1568 3.97059C6.55075 3.97059 3.62744 6.8939 3.62744 10.5C3.62744 14.1061 6.55075 17.0294 10.1568 17.0294Z" fill="#5A5465"/>
</svg>
