<svg width="21" height="21" viewBox="0 0 21 21" fill="none" xmlns="http://www.w3.org/2000/svg">
<rect y="0.34314" width="20.3137" height="20.3137" rx="10.1569" fill="white"/>
<path fill-rule="evenodd" clip-rule="evenodd" d="M10.7903 10.4715C10.8788 10.4175 10.9539 10.3044 11.0144 10.1787C11.8114 10.5044 12.3714 11.2741 12.3714 12.1716C12.3714 13.364 11.383 14.3306 10.1639 14.3306C9.66341 14.3306 9.20184 14.1677 8.83157 13.8932C8.71012 13.8357 8.61018 13.7805 8.52841 13.7352C8.40158 13.6651 8.3184 13.6191 8.26632 13.6263C8.11408 13.6473 8.15828 13.7874 8.19845 13.9146C8.22571 14.0011 8.25114 14.0816 8.21179 14.1148C8.17062 14.1496 8.03728 14.0225 7.88147 13.8739C7.66936 13.6717 7.41563 13.4298 7.29599 13.5024C7.20139 13.5599 7.29323 13.7158 7.40566 13.9065L7.414 13.9207C7.46149 14.0013 7.51653 14.0835 7.56675 14.1584C7.66885 14.3107 7.75108 14.4334 7.70994 14.4542C7.66021 14.4793 7.31369 14.2454 7.02168 13.9207C6.90897 13.7954 6.7998 13.6595 6.69834 13.5333V13.5333C6.47627 13.257 6.29125 13.0268 6.18739 13.054C6.06245 13.0868 6.15696 13.3445 6.29584 13.5925C6.36078 13.7085 6.43717 13.8266 6.5033 13.9289V13.9289C6.60617 14.0879 6.68424 14.2085 6.65593 14.2234C6.61772 14.2434 6.28153 13.9155 6.05319 13.5024C5.91756 13.257 5.80368 12.9859 5.71149 12.7663C5.6115 12.5282 5.53702 12.3509 5.48798 12.333C5.31759 12.271 5.31759 12.6185 5.38593 13.1199C5.39484 13.1853 5.40812 13.2539 5.42446 13.3238C6.0872 15.4681 8.12308 17.0294 10.5318 17.0294C13.4781 17.0294 15.8666 14.6934 15.8666 11.8118C15.8666 9.06913 13.7029 6.82075 10.954 6.61025C10.9575 6.48105 11.0249 6.22483 11.0249 6.22483C11.0249 6.22483 11.5102 5.05067 11.5358 4.79976C11.5375 4.78311 11.5395 4.76501 11.5417 4.74574C11.5719 4.47464 11.6282 3.97058 11.1945 3.97058C10.9629 3.97058 10.8553 4.14286 10.7321 4.3399V4.3399C10.6848 4.41554 10.6352 4.49483 10.5755 4.56942C10.1453 5.10669 9.42182 5.77762 9.01162 6.13506C8.14458 6.89055 7.29392 7.51146 6.79779 7.87359L6.79776 7.87361C6.57212 8.0383 6.41982 8.14948 6.37269 8.19542C6.0175 8.54168 4.74395 10.8389 4.74395 10.8389C4.74395 10.8389 4.3321 11.5759 4.47849 11.7254C4.62488 11.8748 4.9779 11.8406 4.9779 11.8406C4.9779 11.8406 9.72041 10.7526 10.145 10.6668C10.2593 10.6437 10.34 10.6303 10.402 10.6201C10.5702 10.5923 10.6004 10.5873 10.7903 10.4715ZM7.43716 9.07332C7.18259 9.31529 6.7604 9.89286 6.7604 9.89286C6.7604 9.89286 7.54505 9.94119 7.97719 9.53043C8.40935 9.11963 8.31034 8.41958 8.31034 8.41958C8.31034 8.41958 7.69171 8.83134 7.43716 9.07332Z" fill="#0B6DC3"/>
</svg>
