<svg width="21" height="21" viewBox="0 0 21 21" fill="none" xmlns="http://www.w3.org/2000/svg">
<rect y="0.34314" width="20.3137" height="20.3137" rx="10.1569" fill="white"/>
<path fill-rule="evenodd" clip-rule="evenodd" d="M7.51485 4.00729C7.51233 4 7.51776 3.9924 7.52547 3.9924H12.1121C12.117 3.9924 12.1214 3.9956 12.1228 4.0003L14.2295 10.8067C14.2318 10.814 14.2264 10.8213 14.2188 10.8213H11.1653C11.1616 10.8213 11.1589 10.8248 11.1599 10.8284L12.9112 16.9932C12.9146 17.0052 12.8989 17.013 12.8914 17.003L6.08577 7.95257C6.08021 7.94517 6.08549 7.93461 6.09473 7.93461H8.86603C8.86989 7.93461 8.87259 7.93081 8.87131 7.92716L7.51485 4.00729Z" fill="#F4D23C"/>
</svg>
