<svg width="21" height="21" viewBox="0 0 21 21" fill="none" xmlns="http://www.w3.org/2000/svg">
<rect y="0.34314" width="20.3137" height="20.3137" rx="10.1569" fill="white"/>
<path fill-rule="evenodd" clip-rule="evenodd" d="M6.24776 14.3255L8.34233 13.7181L10.1514 17.026C10.1538 17.0303 10.16 17.0303 10.1623 17.026L11.9714 13.7181L14.066 14.3255C14.0707 14.3268 14.0751 14.3225 14.0736 14.3178L13.4662 12.2647L16.6828 10.5054C16.6871 10.5031 16.6871 10.4969 16.6829 10.4946L13.4397 8.72081L14.0736 6.5781C14.0751 6.5734 14.0707 6.56904 14.066 6.57039L11.9223 7.19199L10.1623 3.97401C10.16 3.96972 10.1538 3.96972 10.1515 3.97401L8.39148 7.19199L6.24776 6.57039C6.24307 6.56904 6.23871 6.5734 6.24011 6.5781L6.87405 8.72081L3.6309 10.4946C3.62661 10.4969 3.62661 10.5031 3.6309 10.5054L6.84753 12.2647L6.24011 14.3178C6.23871 14.3225 6.24307 14.3268 6.24776 14.3255ZM7.87313 10.5225L9.35701 11.3341L10.1686 12.818C10.1709 12.8223 10.1771 12.8223 10.1794 12.818L10.991 11.3341L12.4749 10.5225C12.4791 10.5202 12.4791 10.514 12.4749 10.5117L10.991 9.70012L10.1794 8.21626C10.1771 8.21195 10.1709 8.21195 10.1686 8.21626L9.35701 9.70012L7.87313 10.5117C7.86884 10.514 7.86884 10.5202 7.87313 10.5225Z" fill="#EC8FE6"/>
</svg>
