<svg width="21" height="21" viewBox="0 0 21 21" fill="none" xmlns="http://www.w3.org/2000/svg">
<rect y="0.34314" width="20.3137" height="20.3137" rx="10.1569" fill="white"/>
<path fill-rule="evenodd" clip-rule="evenodd" d="M5.87959 5.05625C6.03763 4.43227 6.60292 3.97059 7.27601 3.97059C7.78089 3.97059 8.22512 4.23035 8.48231 4.62353H8.90349C9.16515 4.355 9.53072 4.18824 9.93526 4.18824C10.5284 4.18824 11.0378 4.54671 11.2586 5.05882H11.6112C11.8322 4.92089 12.0932 4.84118 12.3729 4.84118C12.966 4.84118 13.4754 5.19965 13.6962 5.71177H14.6551C14.6633 5.71177 14.671 5.71397 14.6776 5.71782C14.7214 5.71381 14.7657 5.71177 14.8105 5.71177C15.6061 5.71177 16.251 6.35666 16.251 7.1522V11.4714L16.251 11.4794L16.251 11.4874V11.5496C16.251 11.576 16.2502 11.6022 16.2488 11.6283C16.1622 14.6247 13.4679 17.0294 10.1569 17.0294C6.79117 17.0294 4.06274 14.5446 4.06274 11.4794C4.06274 9.99986 4.69847 8.65552 5.73472 7.6606C5.73214 9.10301 5.7565 10.5942 5.86881 10.5686C6.16953 10.5001 5.93457 6.03244 5.87959 5.05625Z" fill="#CE416B"/>
</svg>
