<svg width="21" height="21" viewBox="0 0 21 21" fill="none" xmlns="http://www.w3.org/2000/svg">
<rect y="0.34314" width="20.3137" height="20.3137" rx="10.1569" fill="white"/>
<path fill-rule="evenodd" clip-rule="evenodd" d="M12.6163 14.0553C12.7777 13.4654 12.4645 12.2525 12.4645 12.2525C12.4645 12.2525 12.2373 13.2405 11.8824 13.6057C11.5796 13.9172 11.2086 14.1333 10.6766 14.1901C11.1116 13.9788 11.4107 13.5382 11.4107 13.029C11.4107 12.3142 10.8213 11.7347 10.0941 11.7347C9.36693 11.7347 8.77742 12.3142 8.77742 13.029C8.77742 13.2242 8.82142 13.4094 8.90015 13.5754C8.44534 13.213 8.37382 12.6321 8.37382 12.6321C8.37382 12.6321 7.86596 14.7407 9.26534 15.7325C10.6647 16.7244 13.406 15.8718 13.406 15.8718C13.406 15.8718 9.48303 18.6321 6.57607 15.6279C4.07195 13.0399 5.92249 9.6329 5.92249 9.6329C5.92249 9.6329 5.84257 9.94896 5.84257 10.3159C5.84257 10.6828 6.0415 10.9619 6.0415 10.9619C6.0415 10.9619 6.63488 9.71115 7.09668 9.20249C7.53375 8.7211 8.08163 8.33066 8.55486 7.99343C8.91913 7.73383 9.23917 7.50576 9.43031 7.292C10.4831 6.11481 9.83758 3.9706 9.83758 3.9706C9.83758 3.9706 11.0244 5.01683 11.3557 6.36806C11.482 6.88312 11.4007 7.46916 11.3281 7.99322C11.2101 8.84399 11.1148 9.53144 11.9668 9.48683C13.3437 9.41472 12.1472 7.292 12.1472 7.292C12.1472 7.292 15.2704 8.93354 15.0371 11.8045C14.8038 14.6754 11.6233 15.3281 11.6233 15.3281C11.6233 15.3281 12.455 14.6453 12.6163 14.0553Z" fill="#FF9D55"/>
</svg>
