<svg width="21" height="21" viewBox="0 0 21 21" fill="none" xmlns="http://www.w3.org/2000/svg">
<rect y="0.34314" width="20.3137" height="20.3137" rx="10.1569" fill="white"/>
<path fill-rule="evenodd" clip-rule="evenodd" d="M8.18558 16.1588C10.0986 16.1588 11.7363 15.0956 12.4125 13.5885C12.4207 13.5701 9.69793 14.2961 9.78475 14.0394C9.82352 13.9248 11.4926 13.3151 12.7086 12.6039C13.4076 12.1951 13.7294 11.3298 13.7294 11.3298C13.7294 11.3298 12.5519 11.9015 11.9566 12.0465C10.757 12.3388 9.70109 12.3073 9.70109 12.2769C9.70109 12.211 11.4545 11.8779 13.8915 10.3928C15.0378 9.6943 15.3491 8.4911 15.3491 8.4911C15.3491 8.4911 14.0889 9.24178 13.327 9.48962C11.5203 10.0773 9.87157 10.2545 9.87157 10.1749C9.87157 10.0046 11.3225 9.60567 12.8608 8.86027C13.6607 8.47271 14.3534 7.96638 15.1561 7.40329C16.4696 6.48201 16.6862 4.84119 16.6862 4.84119C16.6862 4.84119 15.3908 5.67675 14.7586 5.95423C12.1499 7.09921 9.84642 7.69982 8.18558 7.82985C5.67849 8.02614 3.62744 9.77538 3.62744 12.0465C3.62744 14.3177 5.66819 16.1588 8.18558 16.1588Z" fill="#89AAE3"/>
</svg>
