<svg width="21" height="21" viewBox="0 0 21 21" fill="none" xmlns="http://www.w3.org/2000/svg">
<rect y="0.34314" width="20.3137" height="20.3137" rx="10.1569" fill="white"/>
<path fill-rule="evenodd" clip-rule="evenodd" d="M13.0378 16.9842C11.8598 17.0445 10.5113 17.0445 10.053 16.9842C6.47819 16.5139 3.62744 13.9002 3.62744 10.3674C3.62744 6.83452 6.55076 3.97058 10.1569 3.97058C13.7629 3.97058 16.6863 6.83452 16.6863 10.3674C16.6863 12.0105 16.0539 13.5089 15.0146 14.6418C14.7324 14.9494 15.1196 15.1652 15.5131 15.3844C15.8989 15.5994 16.2907 15.8178 16.063 16.1294C15.8121 16.4727 14.4518 16.9118 13.0378 16.9842ZM9.23865 9.56777C9.23865 10.1198 8.78188 10.5672 8.21843 10.5672C7.65499 10.5672 7.19821 10.1198 7.19821 9.56777C7.19821 9.19755 7.40366 8.87437 7.70894 8.70162C7.72651 9.18294 8.12225 9.56774 8.60788 9.56774H9.23865V9.56777ZM12.4007 8.70162C12.3832 9.18294 11.9874 9.56774 11.5018 9.56774H10.871V9.56777C10.871 10.1198 11.3278 10.5672 11.8912 10.5672C12.4547 10.5672 12.9114 10.1198 12.9114 9.56777C12.9114 9.19755 12.706 8.87437 12.4007 8.70162Z" fill="#5269AD"/>
</svg>
