<svg width="21" height="21" viewBox="0 0 21 21" fill="none" xmlns="http://www.w3.org/2000/svg">
<rect y="0.34314" width="20.3137" height="20.3137" rx="10.1569" fill="white"/>
<path fill-rule="evenodd" clip-rule="evenodd" d="M6.20679 15.1834C6.16197 15.1412 6.11764 15.0983 6.07383 15.0544C3.76087 12.7415 3.76087 8.99146 6.07383 6.67851C8.38677 4.36555 15.7567 4.21082 15.7567 4.21082C15.7567 4.21082 16.7627 12.7415 14.4498 15.0544C12.3956 17.1087 9.20785 17.3385 6.90003 15.7439L8.75959 13.4619L11.7323 12.8201L9.30568 12.5775L10.8478 11.0073L12.6032 10.6228L11.2151 10.2117L12.6032 7.70769L10.6288 9.92228L9.86637 8.84638L10.1348 10.6228L8.75959 12.1731L8.12213 10.2117V12.8201L6.20679 15.1834Z" fill="#63BC5A"/>
</svg>
