<svg width="21" height="21" viewBox="0 0 21 21" fill="none" xmlns="http://www.w3.org/2000/svg">
<rect y="0.34314" width="20.3137" height="20.3137" rx="10.1569" fill="white"/>
<path fill-rule="evenodd" clip-rule="evenodd" d="M6.50355 15.197C6.5 15.197 6.49753 15.1935 6.4987 15.1901L9.83265 5.76961C9.83339 5.76756 9.83533 5.76619 9.8375 5.76619H13.3966C13.3988 5.76619 13.4007 5.76757 13.4014 5.76963L16.6859 15.1901C16.6871 15.1935 16.6846 15.197 16.6811 15.197H6.60373H6.50355ZM3.63258 15.2338C3.629 15.2338 3.62652 15.2302 3.62777 15.2269L6.11047 8.59873C6.11122 8.59671 6.11313 8.59539 6.11527 8.59539H8.27245C8.27603 8.59539 8.2785 8.59893 8.27728 8.60228L5.87658 15.2304C5.87584 15.2325 5.87391 15.2338 5.87175 15.2338H3.63258Z" fill="#D97845"/>
</svg>
