<svg width="21" height="21" viewBox="0 0 21 21" fill="none" xmlns="http://www.w3.org/2000/svg">
<rect y="0.34314" width="20.3137" height="20.3137" rx="10.1569" fill="white"/>
<g clip-path="url(#clip0_421_3578)">
<path fill-rule="evenodd" clip-rule="evenodd" d="M13.429 4.96649L13.4692 8.49518L10.3915 9.97264L10.3535 6.64088L13.429 4.96649Z" fill="#73CEC0"/>
<path fill-rule="evenodd" clip-rule="evenodd" d="M16.5145 10.5268L13.4678 12.2696L10.4192 10.5241L13.4662 8.92357L16.5145 10.5268Z" fill="#73CEC0"/>
<path fill-rule="evenodd" clip-rule="evenodd" d="M9.87733 10.5268L6.83056 12.2696L3.78198 10.5241L6.82898 8.92357L9.87733 10.5268Z" fill="#73CEC0"/>
<path fill-rule="evenodd" clip-rule="evenodd" d="M6.79639 4.95215L9.95871 6.51833L9.87786 9.93138L6.89203 8.45262L6.79639 4.95215Z" fill="#73CEC0"/>
<path fill-rule="evenodd" clip-rule="evenodd" d="M13.5156 16.0481L10.3533 14.4819L10.4341 11.0689L13.42 12.5476L13.5156 16.0481Z" fill="#73CEC0"/>
<path fill-rule="evenodd" clip-rule="evenodd" d="M6.90543 16.08L6.86523 12.5513L9.94301 11.0738L9.98096 14.4056L6.90543 16.08Z" fill="#73CEC0"/>
</g>
<defs>
<clipPath id="clip0_421_3578">
<rect width="13.0588" height="13.0588" fill="white" transform="translate(3.62744 3.9706)"/>
</clipPath>
</defs>
</svg>
