<svg width="21" height="21" viewBox="0 0 21 21" fill="none" xmlns="http://www.w3.org/2000/svg">
<rect y="0.34314" width="20.3137" height="20.3137" rx="10.1569" fill="white"/>
<path fill-rule="evenodd" clip-rule="evenodd" d="M14.5392 14.0057C15.8579 12.9513 16.6863 11.4278 16.6863 9.73357C16.6863 6.55076 13.7629 3.9706 10.1569 3.9706C6.55076 3.9706 3.62744 6.55076 3.62744 9.73357C3.62744 11.3666 4.39704 12.8411 5.63358 13.8897C5.55864 14.1485 5.51753 14.4299 5.51753 14.7242C5.51753 15.9973 6.28682 17.0294 7.23581 17.0294C7.85243 17.0294 8.3932 16.5937 8.69633 15.9392C8.99946 16.5937 9.54023 17.0294 10.1569 17.0294C10.7189 17.0294 11.218 16.6673 11.5315 16.1076C11.845 16.6673 12.344 17.0294 12.9061 17.0294C13.855 17.0294 14.6243 15.9973 14.6243 14.7242C14.6243 14.4734 14.5945 14.2318 14.5392 14.0057ZM13.937 9.84786C13.937 11.4637 12.2061 12.7737 10.0709 12.7737C7.93576 12.7737 6.20485 11.4637 6.20485 9.84786C6.20485 8.23198 7.93576 6.92204 10.0709 6.92204C12.2061 6.92204 13.937 8.23198 13.937 9.84786Z" fill="#B567CE"/>
</svg>
