<svg width="21" height="21" viewBox="0 0 21 21" fill="none" xmlns="http://www.w3.org/2000/svg">
<rect y="0.34314" width="20.3137" height="20.3137" rx="10.1569" fill="white"/>
<path fill-rule="evenodd" clip-rule="evenodd" d="M15.2632 14.8158C15.2632 14.8158 13.6166 16.1365 10.3399 15.59C7.85385 15.1753 6.52792 12.4349 6.52792 10.9618C6.52792 7.46935 9.1128 6.67458 10.8604 6.67458C12.6079 6.67458 13.7479 8.37834 13.7479 9.69749C13.7479 11.0166 12.8149 12.1705 11.363 12.1705C9.91105 12.1705 9.48102 11.1511 9.48102 10.214C9.48102 9.27685 10.2392 8.94668 10.9307 8.94668C11.6222 8.94668 11.859 9.53703 11.859 10.0444C11.859 10.5518 11.4653 10.7335 11.1369 10.7335C10.8086 10.7335 10.7761 10.5679 10.6504 10.3938C10.5247 10.2197 10.8107 9.56073 10.3399 9.56073C9.86904 9.56073 9.78127 10.3183 9.78127 10.3183C9.78127 10.3183 9.95293 11.7806 11.363 11.7554C12.773 11.7301 13.442 10.64 13.2476 9.56073C13.0532 8.48144 12.0057 7.33458 10.1675 7.56633C8.32917 7.79807 7.57862 9.65548 7.90945 11.6404C8.24028 13.6254 10.6182 14.7755 12.4879 14.3617C14.3576 13.9479 16.2198 12.5944 16.2198 9.16251C16.2198 5.73064 13.2476 3.66778 9.70346 4.00775C6.15934 4.34772 3.95931 7.44622 4.10013 11.1691C4.24095 14.892 7.77356 16.9197 10.7607 17.0242C13.7479 17.1287 15.5792 15.3995 15.5792 15.3995C15.5792 15.3995 15.991 15.0322 15.8295 14.7454C15.6681 14.4587 15.2632 14.8158 15.2632 14.8158Z" fill="#FA7179"/>
</svg>
