<svg width="21" height="21" viewBox="0 0 21 21" fill="none" xmlns="http://www.w3.org/2000/svg">
<rect y="0.34314" width="20.3137" height="20.3137" rx="10.1569" fill="white"/>
<g clip-path="url(#clip0_421_3612)">
<path fill-rule="evenodd" clip-rule="evenodd" d="M13.7058 10.2133C13.705 10.2123 13.7047 10.211 13.7049 10.2098L14.538 5.35184C14.5384 5.3496 14.5404 5.34797 14.5426 5.34797H14.8063C14.8083 5.34797 14.8101 5.34929 14.8107 5.35123L16.6877 11.2941C16.6883 11.2959 16.6876 11.298 16.6861 11.2992L15.3022 12.3797C15.3001 12.3813 15.2971 12.3809 15.2956 12.3787L13.7058 10.2133ZM3.60205 13.4338C3.60205 13.4358 3.60335 13.4376 3.60526 13.4382L6.45803 14.371C6.45941 14.3714 6.46094 14.3712 6.46214 14.3704L12.8387 9.96814C12.8398 9.9674 12.8405 9.96625 12.8407 9.96498L13.5245 5.37675C13.5249 5.37393 13.5227 5.3714 13.5199 5.3714H7.87183C7.87042 5.3714 7.86912 5.37202 7.86823 5.37309L3.60312 10.5183C3.60243 10.5191 3.60205 10.5202 3.60205 10.5213L3.60205 13.4338ZM7.64679 14.6086L10.7634 15.6295C10.7648 15.63 10.7663 15.6298 10.7675 15.6289L14.4781 12.9673C14.4801 12.9659 14.4806 12.963 14.4792 12.961L13.0883 10.8911C13.0868 10.8889 13.0839 10.8883 13.0818 10.8898L7.64679 14.6086Z" fill="#C5B78C"/>
</g>
<defs>
<clipPath id="clip0_421_3612">
<rect width="13.0588" height="13.0588" fill="white" transform="translate(3.62744 3.97059)"/>
</clipPath>
</defs>
</svg>
