<svg width="21" height="21" viewBox="0 0 21 21" fill="none" xmlns="http://www.w3.org/2000/svg">
<rect y="0.34314" width="20.3137" height="20.3137" rx="10.1569" fill="white"/>
<path fill-rule="evenodd" clip-rule="evenodd" d="M3.62875 10.508C3.62701 10.505 3.62701 10.5013 3.62874 10.4983L6.91242 4.88801C6.91413 4.8851 6.91727 4.8833 6.92064 4.8833H13.4291C13.4324 4.8833 13.4356 4.88511 13.4373 4.88805L16.685 10.4984C16.6867 10.5013 16.6867 10.505 16.685 10.5079L13.4373 16.112C13.4356 16.1149 13.4324 16.1167 13.4291 16.1167H6.92064C6.91727 16.1167 6.91413 16.1149 6.91242 16.112L3.62875 10.508ZM13.1822 10.5C13.1822 12.1703 11.8282 13.5244 10.1579 13.5244C8.48757 13.5244 7.13351 12.1703 7.13351 10.5C7.13351 8.82967 8.48757 7.47563 10.1579 7.47563C11.8282 7.47563 13.1822 8.82967 13.1822 10.5Z" fill="#5A8EA2"/>
</svg>
