<svg width="21" height="21" viewBox="0 0 21 21" fill="none" xmlns="http://www.w3.org/2000/svg">
<rect y="0.34314" width="20.3137" height="20.3137" rx="10.1569" fill="white"/>
<path fill-rule="evenodd" clip-rule="evenodd" d="M14.4722 12.8089C14.4722 15.1397 12.5757 17.0291 10.2361 17.0291C7.89656 17.0291 6 15.1397 6 12.8089C6 10.5421 10.007 4.31643 10.2267 3.9767C10.2317 3.96895 10.2405 3.96895 10.2455 3.9767C10.4653 4.31643 14.4722 10.5421 14.4722 12.8089ZM9.52996 15.6762C7.38036 15.2058 7.7482 12.8246 7.7482 12.8246C7.7482 12.8246 8.33518 14.2621 9.75964 14.7277C11.1841 15.1933 12.9055 14.5104 12.9055 14.5104C12.9055 14.5104 11.6796 16.1465 9.52996 15.6762Z" fill="#5090D6"/>
</svg>
